<?xml version="1.0" encoding="UTF-8"?>
<!-- Generator: visioncortex VTracer 0.6.12 -->
<svg version="1.1" xmlns="http://www.w3.org/2000/svg" width="400" height="400">
<path d="M0 0 C132 0 264 0 400 0 C400 132 400 264 400 400 C268 400 136 400 0 400 C0 268 0 136 0 0 Z " fill="#F7DB3C" transform="translate(0,0)"/>
<path d="M0 0 C35.31 0 70.62 0 107 0 C107 10.56 107 21.12 107 32 C84.56 32 62.12 32 39 32 C39 45.53 39 59.06 39 73 C59.79 73 80.58 73 102 73 C102 83.56 102 94.12 102 105 C81.54 105 61.08 105 40 105 C40 120.51 40 136.02 40 152 C62.11 152 84.22 152 107 152 C107 162.89 107 173.78 107 185 C71.69 185 36.38 185 0 185 C0 123.95 0 62.9 0 0 Z " fill="#040301" transform="translate(114,181)"/>
<path d="M0 0 C-2.238 7.004 -4.87 13.773 -7.688 20.562 C-8.103 21.571 -8.519 22.58 -8.947 23.619 C-9.962 26.081 -10.98 28.541 -12 31 C-17.899 29.262 -23.747 27.439 -29.562 25.438 C-41.523 21.451 -55.938 17.667 -68.25 22.625 C-73.057 25.243 -76.251 28.752 -78 34 C-78.403 40.045 -77.654 43.585 -75 49 C-74.67 49.99 -74.34 50.98 -74 52 C-72.367 52.941 -72.367 52.941 -70 54 C-68.358 54.936 -66.716 55.874 -65.077 56.817 C-57.763 61.016 -50.325 64.855 -42.75 68.562 C-25.334 77.158 -7.671 87.653 -1 107 C2.895 121.969 1.846 136.149 -5.492 149.77 C-8.204 154.005 -11.222 157.662 -15 161 C-15.312 161.277 -15.312 161.277 -16.891 162.68 C-34.718 177.621 -59.851 178.064 -82 177 C-94.943 175.857 -106.993 171.803 -119 167 C-119 154.79 -119 142.58 -119 130 C-113.72 131.98 -108.44 133.96 -103 136 C-85.15 142.12 -65.978 148.356 -47.438 141.277 C-42.872 138.885 -40.64 135.92 -39 131 C-38.278 124.614 -38.333 119.139 -42.219 113.828 C-48.308 107.578 -56.709 104.061 -64.447 100.264 C-70.178 97.444 -75.823 94.483 -81.438 91.438 C-82.253 91.003 -83.069 90.568 -83.91 90.12 C-97.889 82.477 -109.584 72.25 -115.105 56.934 C-118.968 42.445 -118.364 27.428 -111.457 14 C-103.377 0.391 -90.182 -7.154 -75.102 -11.094 C-48.927 -16.664 -24.181 -9.153 0 0 Z " fill="#010100" transform="translate(367,191)"/>
</svg>
